<svg id="SvgjsSvg1024" width="324" height="400" xmlns="http://www.w3.org/2000/svg" version="1.1" xmlns:xlink="http://www.w3.org/1999/xlink" xmlns:svgjs="http://svgjs.com/svgjs"><g id="SvgjsG1027"><image id="main_image" xlink:href="http://vi.anvyonline.com/assets/upload/themes/14.186.194.220/black-hole-illusion-large.jpg" width="679" height="400" x="-309.5" y="0" transform="matrix(1,0,0,1,0,0)"></image></g><use id="left-use" xlink:href="#left" x="38" y="0"></use><use id="top-use" xlink:href="#top" x="0" y="38"></use><use id="right-use" xlink:href="#right" x="610" y="0"></use><use id="bottom-use" xlink:href="#bottom" x="0" y="762"></use><rect id="rect-main_image-0" width="19" height="19" x="0" y="0" fill="white" fill-opacity="1" stroke-width="0" index="0"></rect><rect id="rect-main_image-1" width="19" height="19" x="305" y="0" fill="white" fill-opacity="1" stroke-width="0" index="1"></rect><rect id="rect-main_image-2" width="19" height="19" x="305" y="381" fill="white" fill-opacity="1" stroke-width="0" index="2"></rect><rect id="rect-main_image-3" width="19" height="19" x="0" y="381" fill="white" fill-opacity="1" stroke-width="0" index="3"></rect><defs id="SvgjsDefs1025"><g id="left" transform="scale(-1,1) translate(0,0)"><use id="SvgjsUse1030" xlink:href="#SvgjsG1027" clip-path="url(#left-clip)"></use><clipPath id="left-clip"><rect id="SvgjsRect1028" width="19" height="362" x="19" y="19"></rect></clipPath></g><g id="top" transform="scale(1,-1) translate(0,0)"><use id="SvgjsUse1034" xlink:href="#SvgjsG1027" clip-path="url(#top-clip)"></use><clipPath id="top-clip"><rect id="SvgjsRect1032" width="286" height="19" x="19" y="19"></rect></clipPath></g><g id="right" transform="scale(-1,1) translate(0,0)"><use id="SvgjsUse1038" xlink:href="#SvgjsG1027" clip-path="url(#right-clip)"></use><clipPath id="right-clip"><rect id="SvgjsRect1036" width="19" height="362" x="286" y="19"></rect></clipPath></g><g id="bottom" transform="scale(1,-1) translate(0,0)"><use id="SvgjsUse1042" xlink:href="#SvgjsG1027" clip-path="url(#bottom-clip)"></use><clipPath id="bottom-clip"><rect id="SvgjsRect1040" width="286" height="19" x="19" y="362"></rect></clipPath></g></defs></svg>