<svg id="SvgjsSvg1038" width="400" height="400" xmlns="http://www.w3.org/2000/svg" version="1.1" xmlns:xlink="http://www.w3.org/1999/xlink" xmlns:svgjs="http://svgjs.com/svgjs"><defs id="SvgjsDefs1039"></defs><g id="SvgjsG1041"><image id="main_image" xlink:href="http://vi.anvyonline.com/assets/upload/themes/14.186.208.204/Bread-Vector.png" width="764" height="400" data-id="Bread-Vector.png" x="-182" y="0" transform="matrix(1,0,0,1,0,0)" src="http://vi.anvyonline.com/assets/upload/themes/14.186.208.204/Bread-Vector.png"></image></g><path id="SvgjsPath1042" d="M0 0L200 0L0 200Z " fill="white" stroke="white" stroke-width="1"></path><path id="SvgjsPath1043" d="M200 0L400 200L400 0Z " fill="white" stroke="white" stroke-width="1"></path><path id="SvgjsPath1044" d="M200 400L400 400L400 200Z " fill="white" stroke="white" stroke-width="1"></path><path id="SvgjsPath1045" d="M0 200L0 400L200 400Z " fill="white" stroke="white" stroke-width="1"></path><path id="SvgjsPath1050" d="M200 0L213.4350288425444 13.435028842544392L200 26.870057685088796L186.5649711574556 13.435028842544392Z " fill="white" stroke="white" stroke-width="1"></path><path id="SvgjsPath1051" d="M373.1299423149112 200L386.5649711574556 186.5649711574556L400 200L386.5649711574556 213.4350288425444Z " fill="white" stroke="white" stroke-width="1"></path><path id="SvgjsPath1052" d="M200 373.1299423149112L213.4350288425444 386.5649711574556L200 400L186.5649711574556 386.5649711574556Z " fill="white" stroke="white" stroke-width="1"></path><path id="SvgjsPath1053" d="M26.870057685088806 200L13.435028842544403 213.4350288425444L0 200L13.435028842544403 186.5649711574556Z " fill="white" stroke="white" stroke-width="1"></path></svg>